<svg width="391" height="166" viewBox="0 0 391 166" fill="none" xmlns="http://www.w3.org/2000/svg">
<rect y="14" width="389" height="150" fill="white"/>
<path d="M42.5216 162C30.0747 165.309 16.6829 164.215 6 162H42.5216C61.9212 156.842 79.0253 140.986 80 102C81.6 38 126.667 29.3333 149 33H366C372.649 34.87 382.588 34.7196 387 26.3968V1C390.315 13.3545 389.666 21.3676 387 26.3968V162H42.5216Z" fill="black"/>
<path d="M6 162C33.3333 167.667 78.4 166 80 102C81.6 38 126.667 29.3333 149 33H366C376.667 36 395.8 33.8 387 1V162H6Z" stroke="black" stroke-width="2"/>
</svg>
